<svg width="358" height="360" viewBox="0 0 358 360" fill="none" xmlns="http://www.w3.org/2000/svg">
<rect x="5.5" y="5.5" width="349.69" height="349.69" rx="81.5" fill="white" stroke="#9AA0A6" stroke-width="5"/>
<path d="M77.3115 157.247C69.2118 157.247 62.6575 163.801 62.6575 171.901V187.888C62.6575 195.988 69.2118 202.543 77.3115 202.543C85.4112 202.543 91.9656 195.988 91.9656 187.888V171.901C91.9656 163.801 85.4112 157.247 77.3115 157.247Z" fill="#0066D9"/>
<path d="M282.468 157.247C274.369 157.247 267.814 163.801 267.814 171.901V187.888C267.814 195.988 274.369 202.543 282.468 202.543C290.568 202.543 297.122 195.988 297.122 187.888V171.901C297.122 163.801 290.568 157.247 282.468 157.247Z" fill="#4285F4"/>
<path d="M127.935 205.207C119.835 205.207 113.281 211.762 113.281 219.862V235.849C113.281 243.949 119.835 250.503 127.935 250.503C136.034 250.503 142.589 243.949 142.589 235.849V219.862C142.589 211.762 136.034 205.207 127.935 205.207Z" fill="#EA4335"/>
<path d="M127.935 109.286C119.835 109.286 113.281 115.841 113.281 123.941V176.231H113.294C113.48 184.171 119.955 190.553 127.935 190.553C135.914 190.553 142.389 184.171 142.575 176.231H142.589V123.941C142.589 115.841 136.034 109.286 127.935 109.286Z" fill="#EA4335"/>
<path d="M231.845 109.286C223.746 109.286 217.191 115.841 217.191 123.941V139.928C217.191 148.028 223.746 154.582 231.845 154.582C239.945 154.582 246.499 148.028 246.499 139.928V123.941C246.499 115.841 239.945 109.286 231.845 109.286Z" fill="#34A853"/>
<path d="M179.89 62.6579C171.79 62.6579 165.236 69.2125 165.236 77.3125V93.2993C165.236 101.399 171.79 107.954 179.89 107.954C187.99 107.954 194.544 101.399 194.544 93.2993V77.3125C194.544 69.2125 187.99 62.6579 179.89 62.6579Z" fill="#FAB908"/>
<path d="M179.89 251.836C171.79 251.836 165.236 258.39 165.236 266.49V282.477C165.236 290.577 171.79 297.132 179.89 297.132C187.99 297.132 194.544 290.577 194.544 282.477V266.49C194.544 258.39 187.99 251.836 179.89 251.836Z" fill="#FAB908"/>
<path d="M231.845 169.237C223.746 169.237 217.191 175.791 217.191 183.891V235.849C217.191 243.949 223.746 250.503 231.845 250.503C239.945 250.503 246.499 243.949 246.499 235.849V183.891C246.499 175.791 239.945 169.237 231.845 169.237Z" fill="#34A853"/>
<path d="M194.544 137.263C194.544 129.163 187.99 122.609 179.89 122.609C171.79 122.609 165.236 129.163 165.236 137.263V172.794V187.009V222.526C165.236 230.626 171.79 237.181 179.89 237.181C187.99 237.181 194.544 230.626 194.544 222.526V186.996V172.794V137.263Z" fill="#FAB908"/>
</svg>