<?xml version="1.0" encoding="UTF-8" standalone="no"?>
<svg xmlns:dc="http://purl.org/dc/elements/1.1/" xmlns:cc="http://creativecommons.org/ns#" xmlns:rdf="http://www.w3.org/1999/02/22-rdf-syntax-ns#" xmlns:svg="http://www.w3.org/2000/svg" xmlns="http://www.w3.org/2000/svg" xmlns:sodipodi="http://sodipodi.sourceforge.net/DTD/sodipodi-0.dtd" xmlns:inkscape="http://www.inkscape.org/namespaces/inkscape" width="221.467" height="222.02048" viewBox="0 0 221.46699 222.02048" version="1.1" id="svg4280" sodipodi:docname="pocket_casts.svg" inkscape:version="0.92.4 5da689c313, 2019-01-14" style="fill:none">
  <metadata id="metadata4284">
    <rdf:RDF>
      <cc:Work rdf:about="">
        <dc:format>image/svg+xml</dc:format>
        <dc:type rdf:resource="http://purl.org/dc/dcmitype/StillImage"/>
        <dc:title/>
      </cc:Work>
    </rdf:RDF>
  </metadata>
  <sodipodi:namedview pagecolor="#ffffff" bordercolor="#666666" borderopacity="1" objecttolerance="10" gridtolerance="10" guidetolerance="10" inkscape:pageopacity="0" inkscape:pageshadow="2" inkscape:window-width="1920" inkscape:window-height="1019" id="namedview4282" showgrid="false" inkscape:zoom="1.5809353" inkscape:cx="229.41343" inkscape:cy="96.041375" inkscape:window-x="0" inkscape:window-y="34" inkscape:window-maximized="0" inkscape:current-layer="svg4280" fit-margin-top="0" fit-margin-left="0" fit-margin-right="0" fit-margin-bottom="0" units="pt"/>
  <g clip-path="url(#clip0)" id="g4273" transform="translate(0,0.02047782)">
    <path d="m 221.467,110.734 c 0,61.158 -49.575,110.733 -110.733,110.733 C 49.5759,221.467 0,171.892 0,110.734 0,49.5759 49.5759,0 110.734,0 171.892,0 221.467,49.5759 221.467,110.734 Z" id="path4269" inkscape:connector-curvature="0" style="clip-rule:evenodd;fill:#f43e37;fill-rule:evenodd"/>
    <path d="m 24.6075,110.734 c 0,-47.5665 38.56,-86.1266 86.1265,-86.1266 47.566,0 86.126,38.5601 86.126,86.1266 h -21.532 c 0,-35.675 -28.92,-64.595 -64.594,-64.595 -35.6749,0 -64.595,28.92 -64.595,64.595 0,35.674 28.9201,64.594 64.595,64.594 v 21.532 c -47.5665,0 -86.1265,-38.56 -86.1265,-86.126 z m 86.1265,51.675 c -28.54,0 -51.676,-23.136 -51.676,-51.675 0,-28.5401 23.136,-51.6761 51.676,-51.6761 28.539,0 51.675,23.136 51.675,51.6761 h -18.791 c 0,-18.162 -14.723,-32.8849 -32.884,-32.8849 -18.1619,0 -32.8848,14.7229 -32.8848,32.8849 0,18.161 14.7229,32.884 32.8848,32.884 z" id="path4271" inkscape:connector-curvature="0" style="clip-rule:evenodd;fill:#ffffff;fill-rule:evenodd"/>
  </g>
  <defs id="defs4278">
    <clipPath id="clip0">
      <rect width="221.467" height="221.467" id="rect4275" x="0" y="0" style="fill:#ffffff"/>
    </clipPath>
  </defs>
</svg>