<?xml version="1.0" standalone="no"?>
<!DOCTYPE svg PUBLIC "-//W3C//DTD SVG 20010904//EN"
 "http://www.w3.org/TR/2001/REC-SVG-20010904/DTD/svg10.dtd">
<svg version="1.0" xmlns="http://www.w3.org/2000/svg"
 width="747.000000pt" height="747.000000pt" viewBox="0 0 747.000000 747.000000"
 preserveAspectRatio="xMidYMid meet">
<metadata>
Created by potrace 1.14, written by Peter Selinger 2001-2017
</metadata>
<g transform="translate(0.000000,747.000000) scale(0.100000,-0.100000)"
fill="#000000" stroke="none">
<path d="M3114 7171 c-2 -2 -12 -5 -22 -6 -9 -1 -30 -7 -45 -14 -16 -6 -33
-11 -39 -11 -11 0 -103 -47 -126 -65 -38 -28 -103 -97 -124 -131 -95 -153 -58
-359 86 -492 16 -15 36 -35 45 -44 8 -10 19 -18 24 -18 4 0 22 -13 40 -30 18
-16 36 -30 41 -30 5 0 17 -10 28 -22 14 -17 16 -24 6 -27 -34 -10 -243 -244
-278 -311 -7 -14 -16 -27 -20 -30 -23 -17 -126 -246 -133 -298 -4 -30 -16 -40
-56 -47 -19 -3 -37 -8 -41 -10 -3 -2 -17 -6 -31 -9 -56 -12 -70 -15 -79 -21
-5 -3 -20 -8 -32 -10 -23 -5 -166 -73 -202 -97 -26 -17 -57 -44 -111 -95 -25
-23 -45 -40 -45 -37 0 13 -396 -396 -465 -480 -16 -20 -42 -51 -57 -69 -15
-18 -35 -47 -45 -64 -10 -18 -21 -33 -26 -33 -4 0 -5 -5 -2 -10 3 -6 -1 -13
-9 -16 -9 -3 -16 -12 -16 -20 0 -8 -11 -15 -27 -16 -28 -1 -44 -4 -53 -8 -3
-1 -14 -4 -25 -6 -74 -13 -127 -24 -164 -34 -19 -5 -38 -7 -42 -4 -4 2 -11 -1
-14 -7 -4 -5 -13 -8 -21 -5 -8 3 -14 1 -14 -5 0 -6 -4 -8 -9 -5 -5 3 -25 -1
-45 -9 -20 -8 -38 -15 -41 -15 -3 0 -7 -1 -10 -1 -3 -1 -8 -2 -12 -3 -23 -4
-199 -70 -207 -78 -6 -4 -16 -8 -23 -8 -7 0 -47 -17 -90 -37 -43 -21 -80 -38
-83 -38 -8 -1 -65 -39 -71 -48 -3 -5 -10 -9 -15 -10 -23 -3 -167 -145 -182
-180 -6 -15 -19 -30 -27 -33 -8 -4 -15 -12 -15 -19 0 -16 27 -28 32 -14 2 7
18 5 43 -4 22 -8 49 -18 60 -22 11 -4 31 -9 45 -11 14 -2 36 -6 50 -10 26 -7
28 -8 95 -18 108 -18 642 -46 877 -47 21 0 35 -12 65 -52 20 -29 38 -55 38
-59 0 -3 10 -15 23 -26 12 -11 22 -23 22 -27 0 -7 20 -31 77 -92 18 -18 33
-38 33 -43 0 -6 3 -10 8 -10 4 0 18 -17 32 -37 25 -37 97 -113 136 -143 33
-25 146 -80 165 -80 11 0 19 -5 19 -12 0 -6 3 -9 6 -6 3 4 20 2 37 -3 55 -17
135 -27 347 -45 81 -6 449 -6 635 1 77 3 208 7 290 10 83 3 202 8 265 10 63 3
171 7 240 9 69 3 125 6 125 7 0 1 43 3 95 5 52 1 140 5 195 9 55 3 138 8 185
10 291 16 419 26 530 41 25 3 61 7 80 9 19 2 35 4 35 6 0 1 14 3 30 4 17 1 37
5 45 8 8 3 22 5 30 5 8 0 35 3 60 7 25 4 55 9 67 10 11 2 30 6 41 9 11 4 29 8
39 10 10 2 45 14 78 27 33 13 63 22 68 21 4 -1 7 3 7 9 0 5 5 7 10 4 6 -3 10
-1 10 4 0 6 5 11 12 11 13 0 91 51 96 63 2 4 8 5 13 1 5 -3 12 2 15 10 3 9 13
16 20 16 8 0 17 7 20 15 4 8 10 15 16 15 5 0 15 6 22 13 8 6 24 19 36 27 13 8
33 24 46 35 12 11 32 27 44 35 40 28 73 55 89 73 8 9 21 17 27 17 7 0 21 11
32 25 11 14 22 25 26 25 7 0 72 58 95 84 9 10 30 33 47 52 16 18 39 49 49 68
11 20 26 37 35 37 8 1 31 3 50 5 19 2 60 5 90 8 30 3 78 8 105 11 28 3 68 8
90 10 22 2 40 5 40 6 0 1 9 3 20 5 32 5 47 9 105 29 30 10 55 16 56 14 0 -2 9
3 18 11 10 8 23 15 30 16 19 3 201 88 207 97 3 5 12 9 20 10 8 2 19 5 24 8 6
4 37 21 69 39 65 35 70 40 122 87 48 44 73 105 65 161 -4 30 -110 112 -146
112 -8 0 -15 4 -15 8 0 5 -6 9 -12 10 -16 1 -53 10 -53 12 0 1 -9 3 -20 5 -11
2 -31 6 -45 10 -14 3 -36 8 -50 10 -14 2 -36 7 -50 10 -52 12 -76 17 -95 20
-11 1 -20 3 -20 4 0 1 -11 4 -25 6 -14 2 -37 6 -52 9 -72 15 -86 18 -123 22
-70 8 -130 10 -139 5 -22 -11 -202 -8 -218 4 -10 6 -15 15 -11 18 3 4 1 7 -5
7 -6 0 -82 71 -170 158 -159 158 -264 254 -285 261 -6 2 -23 15 -37 28 -14 13
-47 38 -75 56 -27 17 -53 36 -57 42 -4 5 -8 7 -8 3 0 -5 -12 2 -26 15 -14 12
-29 21 -32 21 -4 -1 -18 6 -32 16 -42 30 -167 89 -174 83 -3 -4 -6 -2 -6 4 0
5 -6 10 -12 11 -21 2 -72 13 -88 19 -8 3 -26 7 -40 8 -14 1 -27 3 -30 4 -5 3
-181 10 -293 13 -60 1 -60 1 -71 59 -7 36 -77 156 -100 171 -6 4 -7 8 -2 8 6
0 1 9 -10 19 -10 11 -32 36 -49 57 -16 21 -79 87 -138 147 l-109 109 33 29
c18 16 28 29 23 29 -5 0 -3 4 5 9 8 5 16 18 18 28 16 100 16 98 9 164 -19 170
-181 347 -346 377 -50 9 -147 8 -170 -1 -8 -4 -24 -8 -35 -10 -40 -6 -110 -51
-157 -99 -64 -67 -102 -170 -86 -238 2 -9 -3 -14 -12 -12 -8 2 -35 5 -60 7
-57 3 -58 3 -40 15 8 5 15 13 16 17 0 4 3 15 6 23 19 49 24 82 22 140 -3 82
-7 99 -44 176 -60 124 -188 221 -345 260 -33 8 -203 12 -211 5z m214 -198 c9
-3 23 -7 31 -9 18 -3 90 -40 113 -57 37 -28 63 -99 63 -171 -1 -45 -5 -71 -13
-74 -7 -2 -12 -10 -12 -18 0 -8 -4 -14 -10 -14 -5 0 -10 -5 -10 -11 0 -23 -53
-58 -92 -60 -53 -3 -218 46 -218 64 0 6 -3 8 -6 4 -3 -3 -11 -1 -18 4 -6 5
-19 15 -28 22 -24 17 -46 141 -26 153 4 3 6 9 3 14 -6 9 23 71 48 102 18 22
94 61 106 54 5 -4 12 -2 16 3 5 10 14 9 53 -6z m881 -262 c-13 -9 -26 -23 -28
-31 -16 -69 18 -118 85 -121 49 -3 72 11 85 48 10 32 12 33 24 16 41 -61 39
-185 -5 -244 -20 -25 -56 -22 -86 9 -10 9 -18 15 -18 14 -1 -2 -26 7 -56 21
-31 13 -73 30 -93 36 -31 11 -72 51 -51 51 3 0 1 6 -5 14 -6 7 -13 32 -15 54
-4 33 1 48 22 75 32 42 86 72 131 73 l33 2 -23 -17z m-394 -437 c28 -1 61 -4
75 -7 14 -3 41 -8 60 -12 33 -6 59 -11 70 -15 3 -1 10 -3 15 -4 15 -2 88 -28
100 -35 6 -3 12 -6 15 -6 14 -3 105 -51 108 -57 2 -5 10 -8 18 -8 8 0 14 -4
14 -10 0 -6 4 -9 9 -8 14 5 140 -101 248 -210 57 -57 103 -105 103 -108 0 -2
15 -21 33 -40 17 -20 35 -41 39 -48 5 -8 -122 -12 -525 -13 -708 -3 -1175 -16
-1286 -38 -40 -7 -41 3 -10 63 49 91 75 130 142 215 36 46 134 143 169 168 18
13 35 26 38 29 5 5 13 10 84 49 40 23 157 70 187 75 13 3 24 5 24 6 0 4 48 11
120 16 44 3 82 8 84 10 3 2 7 1 10 -3 3 -5 29 -9 56 -9z"/>
<path d="M3271 6924 c-28 -36 -27 -79 4 -109 50 -51 135 -17 135 54 0 76 -94
112 -139 55z"/>
<path d="M2415 2968 c-44 -18 -221 -74 -264 -83 -9 -2 -63 -18 -121 -35 -58
-17 -112 -33 -120 -35 -50 -14 -95 -27 -170 -50 -47 -14 -134 -39 -195 -56
-181 -50 -252 -102 -262 -193 -16 -135 64 -193 529 -387 98 -41 178 -77 178
-80 0 -4 -75 -32 -167 -64 -697 -239 -737 -256 -775 -342 -38 -87 -6 -175 93
-249 176 -131 756 -433 1008 -524 173 -63 186 -65 230 -43 60 31 57 107 -5
150 -54 37 -258 147 -474 255 -118 59 -242 123 -275 142 -33 20 -67 38 -75 42
-35 17 -231 136 -228 138 2 2 86 31 188 65 102 34 194 66 205 71 11 5 138 51
283 101 270 94 334 125 365 178 38 65 15 153 -51 197 -17 12 -83 43 -144 69
-62 26 -132 56 -155 66 -23 10 -45 19 -48 19 -3 0 -30 11 -58 24 -29 13 -109
48 -179 77 -70 30 -124 57 -119 62 8 8 104 44 246 92 39 13 126 44 195 68 331
117 341 122 433 211 41 39 48 51 45 78 -2 24 -10 34 -33 44 -25 10 -38 9 -80
-8z"/>
<path d="M3138 2844 c-45 -24 -58 -60 -104 -299 -2 -11 -15 -74 -28 -140 -68
-332 -128 -633 -132 -655 -2 -14 -7 -36 -10 -50 -3 -14 -8 -36 -10 -50 -7 -37
-33 -171 -39 -200 -9 -44 -64 -334 -70 -370 -3 -19 -10 -61 -16 -93 -20 -115
12 -207 71 -207 44 0 49 12 86 195 2 11 6 31 9 45 4 14 8 34 9 45 2 11 9 43
16 70 6 28 14 61 16 75 8 42 64 293 74 330 5 19 11 49 14 65 3 17 15 71 26
120 53 238 112 503 116 525 2 14 7 36 11 50 9 34 8 31 18 75 5 22 9 43 10 48
2 4 3 17 4 30 2 33 10 15 81 -178 34 -93 68 -183 75 -200 7 -16 29 -77 50
-135 142 -404 161 -445 218 -480 49 -31 122 -27 178 9 70 45 212 198 488 529
84 100 155 182 158 182 2 0 2 -8 -1 -17 -3 -10 -8 -43 -11 -73 -3 -30 -8 -62
-10 -70 -2 -8 -7 -35 -10 -60 -3 -25 -10 -72 -15 -105 -5 -33 -12 -78 -15
-100 -3 -22 -12 -80 -20 -130 -8 -49 -17 -108 -20 -130 -3 -22 -7 -47 -10 -55
-2 -8 -7 -42 -10 -75 -4 -32 -8 -62 -10 -65 -1 -3 -6 -30 -9 -61 -4 -31 -9
-67 -11 -79 -2 -12 -9 -54 -14 -93 -6 -40 -13 -82 -15 -94 -3 -12 -7 -48 -11
-79 -3 -32 -8 -61 -11 -66 -3 -5 -7 -47 -9 -93 -6 -120 29 -197 89 -198 35 0
61 25 91 87 23 49 29 71 40 146 3 19 8 51 11 70 3 19 8 46 10 60 2 14 6 39 9
55 2 17 7 48 10 70 3 22 15 96 26 165 10 69 24 152 29 185 9 60 19 122 25 160
2 11 6 37 9 58 13 82 18 116 32 202 8 50 16 101 19 115 4 24 30 195 40 270 3
19 8 49 11 65 3 17 7 44 10 60 2 17 7 44 10 60 3 17 7 50 10 75 3 25 9 56 13
70 10 33 6 83 -8 118 -23 55 -110 80 -158 47 -12 -9 -71 -75 -130 -148 -305
-374 -681 -817 -701 -825 -4 -1 -38 82 -76 185 -113 307 -157 426 -171 458 -7
17 -27 68 -45 115 -17 47 -43 109 -56 138 -13 29 -24 55 -24 57 0 15 -48 105
-73 138 -49 64 -104 81 -159 51z"/>
<path d="M6246 2534 c-22 -8 -49 -16 -60 -18 -146 -28 -776 -300 -895 -386
-74 -54 -90 -132 -39 -188 34 -36 128 -75 258 -106 8 -2 83 -23 165 -46 83
-22 161 -43 175 -46 14 -3 63 -17 110 -32 47 -14 87 -26 90 -27 22 -5 50 -18
50 -23 0 -4 -34 -36 -74 -70 -70 -59 -148 -128 -256 -226 -74 -67 -189 -168
-490 -431 -417 -365 -424 -372 -451 -430 -36 -79 -18 -109 55 -93 22 5 55 17
73 28 29 17 268 206 618 489 77 63 228 184 335 269 205 164 415 363 445 422
24 46 23 105 -2 138 -50 68 -167 114 -565 223 -108 29 -195 57 -192 60 2 4
137 73 299 154 284 141 376 197 437 270 23 27 22 62 -1 75 -25 13 -37 12 -85
-6z"/>
</g>
</svg>
